<?xml version="1.0" encoding="utf-8"?>
<!--Generator: Adobe Illustrator 17.1.0, SVG Export Plug-In . SVG Version: 6.00 Build 0)-->
<!DOCTYPE svg PUBLIC "-//W3C//DTD SVG 1.1//EN" "http://www.w3.org/Graphics/SVG/1.1/DTD/svg11.dtd">
<svg xmlns="http://www.w3.org/2000/svg" xmlns:xlink="http://www.w3.org/1999/xlink" id="Layer_1" x="0px" y="0px" enable-background="new 0 0 200 200" version="1.1" viewBox="0 0 200 200" xml:space="preserve">
    <g>
        <path fill="none" d="M151.06,62.265c0,0,7.502-4.595,5.937-10.367c0,0-1.329-4.431-3.884-1.187c0,0-1.26,2.04-2.037,2.406
		c0.186,2.626,0.154,6.321-0.85,9.849C150.651,62.517,151.06,62.265,151.06,62.265z"/>
        <path fill="none" d="M132.876,55.215c-0.388-0.305-0.754-0.7-1.027-1.235c-0.261-0.514-0.403-1.097-0.436-1.739
		c-8.237,3.152-12.541,6.913-12.142,8.065c0.107,0.309,0.808,0.635,2.424,0.654C123.47,59.254,127.633,57.087,132.876,55.215z"/>
        <path fill="none" d="M141.611,75.404l-0.053,0.02c-2.888,0.963-4.657,1.259-5.738,1.259c-1.072,0-1.467-0.29-1.614-0.508
		c-0.195,0.365-0.443,0.997-0.342,1.679c0.467,0.24,2.807,1.249,8.897-0.994l0.06-0.018c5.103-1.842,6.064-3.805,6.285-4.273
		c-0.327-0.566-0.917-0.921-1.324-1.112C147.832,71.97,147.305,73.35,141.611,75.404z"/>
        <path fill="none" d="M114.217,168.775c-0.457-1.597-1.375-2.208-2.423-1.315c-1.331,1.017-2.163,4.507-1.248,7.48
		c0.454,1.594,1.069,2.789,1.922,3.767C113.602,176.111,115.254,172.813,114.217,168.775z"/>
        <path fill="none" d="M146.651,54.02c-2.763,1.688-6.609,3.421-10.827,4.882c-5.47,1.897-10.701,3.029-13.989,3.029
		c-1.007,0-1.793-0.106-2.368-0.319c1.725,2.545,5.687,7.723,10.763,10.197c0.397,0.136,3.541,1.405,4.308,3.623
		c0.007,0.017,0.043,0.063,0.071,0.097c0.024,0.034,0.051,0.068,0.076,0.102c0.146,0.08,1.76,0.945,6.692-0.699l0.04-0.017
		c4.572-1.651,5.733-3.174,5.822-3.506c-0.895-2.863,0.668-5.456,0.98-5.852c2.557-5.169,2.369-11.959,2.158-14.712
		C149.843,51.768,148.605,52.828,146.651,54.02z"/>
        <path fill="none" d="M104.82,34.525c0.361,4.518,4.125,8.394,8.947,9.217c5.011,0.852,9.476-1.958,11.945-7.522
		c2.136-4.82-0.127-11.319-5.918-17.362C108.833,21.018,104.323,28.334,104.82,34.525z"/>
        <path fill="none" d="M45.742,72.595c-0.014-1.407,0.512-2.79,1.606-3.987c0.768-0.843,1.664-1.437,2.661-1.775
		c2.274-0.763,4.774-0.004,6.078,1.848c1.228,1.748,1.076,3.973-0.396,6.006c0.804,0.773,4.601,2.273,9.678,0.568
		c2.534-0.851,4.963-2.362,7.22-4.49c2.9-2.732,5.638-5.311,6.241-12.337c0.426-4.983-1.952-9.957-6.698-14.005
		c-6.682-5.701-16.753-8.617-25.059-7.253c-1.375,0.226-3.581,0.686-6.284,1.593c-1.772,0.596-3.802,1.409-5.939,2.497
		c-0.425,3.763-0.31,7.674,0.419,11.676C36.787,61.26,40.772,68.447,45.742,72.595z"/>
        <path fill="none" d="M156.774,92.121c0.819-2.709,0.627-3.965-0.749-3.545c-1.616,0.372-4.51,3.848-5.157,7.171
		c-0.307,1.588-0.537,3.336-0.152,4.546C152.54,99.446,155.664,95.792,156.774,92.121z"/>
        <path fill="none" d="M133.11,53.325c0.379,0.753,1.082,1.104,1.593,1.268c0.225-0.074,0.447-0.149,0.675-0.221
		c5.065-1.611,9.711-2.508,12.832-2.606c1.289-1.046,1.584-1.724,1.488-2.002c-0.111-0.318-0.842-0.658-2.562-0.658
		c-3.188,0-8.522,0.606-13.899,2.47c-0.14,0.048-0.269,0.099-0.406,0.148C132.798,52.427,132.922,52.949,133.11,53.325z"/>
        <path fill="none" d="M115.074,151.949c2.501,2.843,5.811-3.797,6.884-7.536c1.805-6.295,2.151-12.023,2.151-12.023
		c-1.076,0.589-2.988,2.076-3.829,2.934C116.222,139.474,112.023,148.479,115.074,151.949z"/>
        <path fill="none" d="M90.663,113.651c-0.539-1.526-1.48-2.064-2.471-1.126c-1.259,1.077-1.894,4.532-0.822,7.369
		c0.538,1.526,1.211,2.648,2.107,3.547C90.459,120.839,91.913,117.517,90.663,113.651z"/>
        <path fill="none" d="M110.803,104.706c-0.337-1.634-1.202-2.32-2.305-1.503c-1.391,0.919-2.463,4.357-1.765,7.402
		c0.338,1.633,0.86,2.877,1.636,3.921C109.678,112.011,111.547,108.829,110.803,104.706z"/>
        <path fill="#00A0AF" d="M40.12,116.349C19.778,99.848,11.534,86.368,13.387,72.637c2.29-16.984,11.662-25.923,19.959-30.576
		c-0.314,3.601-0.167,7.322,0.526,11.127c1.703,9.349,6.454,17.328,12.3,21.497c0.155,0.378,0.338,0.752,0.577,1.119
		c2.667,4.092,10.142,6.88,18.741,3.986c2.092-0.704,4.153-1.721,6.125-3.024c8.724-5.77,12.846-13.826,11.613-22.692
		c-1.338-9.626-9.196-19.06-18.275-21.944c-3.005-0.956-9.16-2.451-16.635-1.719c-3.895,0.381-7.755,1.202-11.486,2.42
		c3.132-8.58,9.482-15.939,18.616-21.079c11.325-6.37,23.713-8.782,35.829-6.975c10.012,1.493,19.704,5.943,26.597,12.208
		c0.25,0.23,0.497,0.459,0.737,0.689c-3.871,0.928-7.353,2.629-10.007,4.917c-3.773,3.254-5.572,7.42-5.2,12.047
		c0.413,5.158,4.672,9.575,10.128,10.506c5.69,0.966,10.733-2.152,13.483-8.348c2.29-5.166,0.17-11.939-5.539-18.222
		c0.069-0.009,0.139-0.018,0.209-0.028c8.038-1.082,17.415,1.581,19.004,9.978c0.986,5.212-1.413,8.727-4.45,13.176
		c-0.77,1.127-1.563,2.291-2.341,3.543c-1.613,2.602-2.426,4.786-2.474,6.548c-7.348,2.743-13.879,6.475-13.064,8.832
		c0.006,0.018,0.019,0.034,0.026,0.052l-0.001,0.005c0.013,0.025,0.053,0.105,0.108,0.209c0.009,0.015,0.015,0.032,0.025,0.047
		c0.752,1.429,4.751,8.57,11.32,11.758l0.06,0.024c0.033,0.011,3.194,1.075,3.951,2.84c-0.462,0.442-1.227,1.403-0.883,2.712
		l0.036,0.134l0.1,0.095c0.115,0.106,0.78,0.644,2.616,0.644c1.5,0,3.782-0.36,7.183-1.61l0.054-0.015
		c6.569-2.364,7.113-4.654,7.152-4.908l0.022-0.139l-0.055-0.129c-0.567-1.302-1.856-1.548-2.461-1.592
		c-0.188-1.043,0.054-2.059,0.389-2.873c0.138,0.031,0.251,0.083,0.251,0.083c0.896,0.558,1.214-0.918,1.214-0.918
		c0.467-2.357,3.249-5.022,3.249-5.022c7.193-5.184,5.879-10.385,5.879-10.385c-0.796-2.916-2.76-3.254-2.76-3.254
		c-2.761-0.348-4.329,3.193-4.329,3.193c-0.203,0.355-0.371,0.531-0.509,0.596c-0.148-1.532-0.344-2.538-0.368-2.66l-0.007,0.001
		c-0.006-0.022-0.003-0.045-0.01-0.066c-0.306-0.879-1.441-1.309-3.475-1.309c-3.289,0-8.519,1.133-13.992,3.031
		c-0.087,0.03-0.174,0.063-0.261,0.093c0.161-1.222,0.757-2.908,2.221-5.271c0.761-1.224,1.547-2.375,2.308-3.49
		c3.096-4.534,5.766-8.451,4.672-14.241c-1.761-9.305-11.906-12.287-20.591-11.123c-0.405,0.054-0.808,0.117-1.207,0.188
		c-0.467-0.467-0.951-0.931-1.458-1.392c-7.092-6.448-17.06-11.028-27.341-12.561c-12.432-1.855-25.135,0.616-36.735,7.142
		c-9.843,5.536-16.563,13.569-19.649,22.932C17.307,39.934,6.379,54.625,5.08,73.994c-1.417,21.108,16.231,35.681,30.411,47.394
		c6.27,5.177,12.193,10.07,15.376,14.662c6.498,9.377,3.635,14.859,0.917,18.165c-2.265,2.758-5.063,4.753-8.093,5.772
		c-5.964,2.004-12.11-0.032-14.622-4.845c-0.93-1.783-1.054-2.937-0.858-3.421c0.063-0.159,0.134-0.179,0.17-0.193
		c0.076-0.026,0.189-0.029,0.311,0c0.669,0.141,1.323,0.107,1.956-0.106c1.736-0.582,2.904-2.422,2.653-4.185
		c-0.23-1.634-1.571-2.664-3.583-2.75c-0.55-0.023-1.094,0.058-1.624,0.232c-2.304,0.776-4.034,3.375-4.3,6.471
		c-0.396,4.586,2.326,8.924,7.28,11.606c4.314,2.339,9.502,2.681,14.6,0.967c6.684-2.25,12.212-7.71,13.76-13.594
		C61.38,142.769,60.608,132.966,40.12,116.349z M119.271,60.306c-0.399-1.152,3.906-4.913,12.142-8.065
		c0.033,0.642,0.175,1.225,0.436,1.739c0.273,0.535,0.639,0.93,1.027,1.235c-5.243,1.872-9.406,4.039-11.181,5.745
		C120.079,60.942,119.377,60.615,119.271,60.306z M147.782,71.456c0.407,0.19,0.997,0.546,1.324,1.112
		c-0.22,0.468-1.181,2.431-6.285,4.273l-0.06,0.018c-6.09,2.243-8.43,1.234-8.897,0.994c-0.101-0.682,0.147-1.313,0.342-1.679
		c0.147,0.217,0.542,0.508,1.614,0.508c1.081,0,2.85-0.296,5.738-1.259l0.053-0.02C147.305,73.35,147.832,71.97,147.782,71.456z
		 M151.075,53.117c0.777-0.366,2.037-2.406,2.037-2.406c2.556-3.244,3.884,1.187,3.884,1.187c1.565,5.772-5.937,10.367-5.937,10.367
		s-0.408,0.252-0.834,0.701C151.229,59.438,151.261,55.743,151.075,53.117z M150.376,50.847c0.211,2.753,0.399,9.543-2.158,14.712
		c-0.312,0.396-1.875,2.988-0.98,5.852c-0.089,0.331-1.25,1.855-5.822,3.506l-0.04,0.017c-4.932,1.644-6.546,0.779-6.692,0.699
		c-0.024-0.034-0.051-0.068-0.076-0.102c-0.028-0.034-0.064-0.08-0.071-0.097c-0.767-2.218-3.91-3.487-4.308-3.623
		c-5.077-2.475-9.038-7.653-10.763-10.197c0.575,0.213,1.361,0.319,2.368,0.319c3.287,0,8.518-1.132,13.989-3.029
		c4.218-1.462,8.064-3.194,10.827-4.882C148.605,52.828,149.843,51.768,150.376,50.847z M133.237,51.575
		c5.377-1.864,10.711-2.47,13.899-2.47c1.72,0,2.451,0.34,2.562,0.658c0.096,0.278-0.199,0.956-1.488,2.002
		c-3.121,0.098-7.767,0.995-12.832,2.606c-0.228,0.072-0.45,0.147-0.675,0.221c-0.511-0.164-1.214-0.515-1.593-1.268
		c-0.188-0.375-0.313-0.898-0.28-1.602C132.968,51.674,133.098,51.623,133.237,51.575z M119.795,18.857
		c5.791,6.043,8.054,12.542,5.918,17.362c-2.469,5.564-6.935,8.374-11.945,7.522c-4.822-0.823-8.586-4.698-8.947-9.217
		C104.323,28.334,108.833,21.018,119.795,18.857z M34.85,41.258c2.137-1.088,4.167-1.901,5.939-2.497
		c2.702-0.907,4.909-1.367,6.284-1.593c8.306-1.364,18.377,1.552,25.059,7.253c4.746,4.048,7.124,9.022,6.698,14.005
		c-0.603,7.026-3.341,9.605-6.241,12.337c-2.257,2.128-4.686,3.639-7.22,4.49c-5.077,1.706-8.875,0.205-9.678-0.568
		c1.471-2.033,1.624-4.258,0.396-6.006c-1.304-1.852-3.804-2.611-6.078-1.848c-0.997,0.338-1.893,0.932-2.661,1.775
		c-1.094,1.198-1.62,2.58-1.606,3.987c-4.97-4.147-8.955-11.334-10.473-19.661C34.54,48.932,34.425,45.021,34.85,41.258z"/>
        <path fill="#00A0AF" d="M155.272,169.24c-1.341-0.143-2.355,0.543-2.982,1.82c-0.203,0.413-0.38,1.148-0.006,1.982
		c0.196,0.439,0.672,0.756,0.596,1.283c-0.077,0.559-0.71,0.633-1.316,0.16c-4.056-3.161-3.614-14.017-3.662-17.319
		c0.12-1.505-2.537-2.497-3.21-0.226c-1.793,6.393-5.751,13.735-8.26,17.459c-1.12,1.662-2.148,2.096-2.611,1.758
		c-4.489-3.277,1.935-19.808,9.666-21.758c1.391-0.349,1.063-2.036-1.286-1.632c-0.531,0.091-2.142,0.613-3.438,1.651
		c-7.918,6.357-10.35,15.892-10.343,22.021c-0.004,0.272,0.003,0.528,0.012,0.776c-1.342,1.326-2.9,2.397-4.715,3.175
		c-3.532,1.508-6.959,2.031-9.768-0.46c2.828-5.976,4.654-10.905,3.119-16.631c-1.039-4.033-3.496-3.878-5.476-1.799
		c-3.19,3.378-6.505,16.109-4.19,21.613c0.242,0.574,0.654,1.198,1.149,1.776c-2.54,4.008-6.231,8.186-10.305,9.159
		c-3.431,0.866-5.803-1.054-7.314-6.34c-2.092-7.317-0.788-24.004,0.436-34.714c5.092-2.694,9.762-5.083,9.826-5.112
		c2.753-1.2,1.126-6.293-3.129-4.056c-0.59,0.309-3.682,2.043-5.962,3.301c0.15-1.088,0.283-1.994,0.388-2.642
		c0.292-1.801,0.555-3.384,0.746-4.453c0.257-1.428-1.137-2.101-2.781-2.305c-1.462-0.183-1.953,0.828-2.024,1.122
		c-0.243,0.979-0.593,2.75-0.994,5.087c-0.304,1.788-0.626,3.866-0.944,6.141c-6.483,4.148-12.462,9.304-19.938,18.288
		c-6.308,7.576-9.371,16.189-2.341,21.918c3.14,2.558,7.638,1.446,9.003,0.631c2.867-1.709,2.785-3.77,2.755-4.185
		c-0.113-1.523-1.046-2.586-2.29-2.722c-1.338-0.146-2.357,0.513-2.991,1.746c-0.204,0.398-0.387,1.107-0.018,1.916
		c0.224,0.488,0.943,0.804,0.274,1.221c-0.549,0.343-1.077,0.454-1.712,0.454c-3.181,0.006-5.536-2.571-5.945-5.605
		c-0.445-3.278-0.156-7.305,10.947-18.355c4.094-4.074,7.929-7.061,11.504-9.382c-1.171,10.14-1.953,22.375-0.862,31.312
		c0.16,1.31,0.605,2.453,0.991,3.489c1.848,4.885,5.17,6.85,9.059,6.35c1.234-0.142,2.492-0.513,3.62-0.939
		c4.591-1.737,8.529-5.432,11.451-10.046l0.592,0.426c0.102,0.056,0.207,0.114,0.314,0.167c2.212,1.121,5.342,1.415,9.335-0.29
		c3.629-1.554,6.475-3.854,8.683-6.369c0.019,0.049,0.034,0.102,0.052,0.148c0.761,1.851,3.817,2.558,6.606,0.689
		c4.426-2.97,8.279-12.281,8.844-13.592c0.236-0.545,0.463-0.578,0.51-0.31c0.29,1.644,0.74,3.73,1.608,5.636
		c1.165,2.549,3.535,4.53,5.828,4.468c0.405-0.013,1.746-0.084,2.771-0.729c2.576-1.619,2.47-3.94,2.436-4.366
		C157.453,170.472,156.516,169.377,155.272,169.24z M110.547,174.94c-0.915-2.973-0.084-6.464,1.248-7.48
		c1.048-0.893,1.966-0.282,2.423,1.315c1.037,4.037-0.615,7.336-1.748,9.932C111.615,177.729,111.001,176.534,110.547,174.94z"/>
        <path fill="#00A0AF" d="M194.998,104.929c0.043-1.525-0.776-2.679-1.999-2.94c-1.316-0.281-2.397,0.269-3.155,1.43
		c-0.244,0.376-0.499,1.063-0.213,1.903c0.148,0.442,0.553,0.773,0.459,1.295c-0.031,0.176-0.741,0.491-1.324,0.015
		c-0.449-0.361-1.348-1.163-1.635-3.622c-1.408-12.041,5.445-34.705,7.002-39.564c0.227-0.709,0.439-1.36,0.625-1.925
		c0.451-1.379-0.836-2.239-2.435-2.667c-1.425-0.384-2.049,0.551-2.161,0.83c-0.277,0.687-0.601,1.357-0.808,2.069
		c-1.41,4.881-3.628,13.242-5.593,22.359c-1.307,6.058-3.353,10.677-4.159,12.391c-3.902,8.313-6.884,8.479-7.691,7.827
		c-4.265-3.457,3.15-20.176,10.979-21.625c1.406-0.26,1.172-1.904-1.193-1.648c-0.539,0.06-2.176,0.473-3.526,1.4
		c-6.965,4.795-10.445,11.968-11.571,17.647c-1.662,2.166-3.52,3.655-5.65,4.44c-3.578,1.318-8.118,0.501-9.208-2.702
		c4.837-3.694,9.597-9.723,9.794-15.501c0.177-4.059-2.154-4.528-4.684-3.242c-5.256,2.668-12.131,14.323-11.572,20.121
		c0.288,2.936,2.584,8.999,11.226,6.797c2.242-0.573,5.759-2.109,9.7-6.98c-0.003,0.022-0.006,0.047-0.006,0.068
		c-0.111,1.61,0.943,9.984,8.48,5.044c3.552-2.328,5.84-7.43,7.48-10.293c-0.063,2.439,0.053,4.636,0.406,6.442
		c1.009,5.125,5.298,6.154,9.399,4.492l-0.133,0.018C194.819,107.324,194.986,105.342,194.998,104.929z M150.868,95.746
		c0.647-3.322,3.541-6.798,5.157-7.171c1.376-0.42,1.568,0.837,0.749,3.545c-1.109,3.671-4.233,7.325-6.058,8.172
		C150.331,99.082,150.56,97.334,150.868,95.746z"/>
        <path fill="#00A0AF" d="M162.898,120.418c-9.647-1.14-16.853-0.29-24.56,1.756c-2.497,0.664-5.673,1.577-9.151,2.995
		c0.112-1.871,0.215-7.3,0.277-9.423c0,0,0.027-2.175,0.013-5.303c0.052-5.422,3.225-12.632,5.86-15.492
		c1.421-1.543,2.375-1.941,3.145-1.82c5.744,0.906,1.777,18.275-7.583,20.625c-1.387,0.348-0.813,2.143,1.454,1.421
		c1.025-0.327,2.384-1.097,3.685-2.095c6.335-4.854,8.248-13.605,7.534-19.882c-0.241-2.12-2.321-9.52-8.102-4.624
		c-2.816,2.384-4.935,7.758-6.221,11.122c-0.105-2.415-0.252-4.736-0.463-6.653l-0.189-2.247c0,0-0.051-1.576-1.947-1.553
		c-1.656,0.021-3.114,0.538-3.019,1.984c0.316,4.728,0.853,15.248,0.853,15.248s0.052,3.229,0.024,7.595
		c-0.024,0.018-0.048,0.032-0.074,0.052c-1.455,1.285-3.126,2.278-5.04,2.942c-3.608,1.245-7.041,1.509-9.645-1.202
		c3.221-5.773,5.381-10.576,4.266-16.431c-0.746-4.124-3.192-4.153-5.299-2.219c-3.399,3.146-7.584,15.653-5.677,21.346
		c0.29,0.868,0.926,1.877,1.685,2.69l0.108,0.091c-1.178,1.207-2.541,2.229-4.128,3.021c-3.415,1.7-6.777,2.426-9.694,0.176
		c2.469-6.004,4.008-10.925,2.172-16.405c-1.248-3.866-3.673-3.555-5.519-1.402c-2.973,3.498-5.553,16.116-2.958,21.333
		c0.371,0.742,1.054,1.558,1.837,2.216c-2.458,3.857-5.916,7.735-9.773,8.724c-3.416,0.923-5.619-1.023-7.418-6.219
		c-2.134-6.161-2.523-18.264-0.879-29.069c0,0,5.309,0.333,8.83,0.178c5.114-0.222,13.153-1.737,15.588-8.695
		c1.233-3.525-0.183-7.433-2.633-9.862c-1.553-1.541-3.839-2.581-5.649-1.912c-0.396,0.146-1.097,0.597-1.389,0.891
		c-1.08,1.076-1.281,2.476-0.573,3.509c0.76,1.11,1.925,1.454,3.272,1.131c0.436-0.104,1.094-0.427,1.465-1.233
		c0.244-0.528,0.259-1.058,0.905-0.831c0.655,0.228,1.627,1.054,2.149,2.067c1.641,3.188,0.972,6.205-0.91,8.017
		c-2.948,2.841-8.514,3.371-11.572,3.302c-4.978-0.111-9.177-0.802-9.177-0.802s1.632-11.172,2.392-15.847
		c0.232-1.431-1.173-2.08-2.82-2.259c-1.466-0.159-1.936,0.862-2.004,1.156c-1.227,5.33-2.101,11.419-2.802,16.102
		c0,0-8.661-1.384-9.919-1.53c-0.844-0.098-1.965,0.657-2.175,1.834c-0.111,0.631,0.133,2.37,1.1,2.922
		c0.164,0.093,0.433,0.146,0.667,0.186c0.492,0.076,9.851,1.22,9.851,1.22c-0.862,10.271-1.176,22.434,0.226,29.23
		c0.294,1.288,0.646,2.442,1.05,3.47c1.928,4.856,5.281,6.764,9.161,6.198c1.233-0.164,2.483-0.553,3.604-0.998
		c4.44-1.761,8.232-5.37,11.055-9.861c0.07,0.032,0.138,0.066,0.209,0.093c2.251,0.95,5.365,1.037,9.224-0.882
		c3.813-1.9,6.671-4.595,8.773-7.445c0.093-0.128,0.166-0.257,0.226-0.385c2.098,1.142,5.063,1.553,8.924,0.218
		c3.653-1.264,6.604-3.313,8.954-5.627c-0.053,3.383-0.163,7.095-0.379,10.395c-2.994,1.739-5.998,4.029-8.733,7.099
		c-7.571,8.496-7.132,20.341,0.248,21.713c6.102,1.135,10.66-7.095,12.087-13.819c0.482-2.905,1.449-6.906,1.744-12.546
		c6.392-3.128,15.396-5.469,26.187-5.936c13.199-0.572,18.279,3.164,20.283,5.797c1.851,2.436,2.009,5.923-0.244,8.17
		c-0.451,0.449-0.901,0.742-1.533,0.89c-0.77,0.176-0.484-0.556-0.671-1.056c-0.31-0.835-0.942-1.208-1.366-1.345
		c-1.322-0.423-2.506-0.168-3.351,0.881c-0.784,0.973-0.69,2.386,0.304,3.543c0.269,0.314,1.672,1.831,4.907,1.013
		c1.542-0.389,5.51-2.782,5.924-6.811C180.807,126.237,172.691,121.571,162.898,120.418z M87.371,119.894
		c-1.072-2.837-0.437-6.292,0.822-7.369c0.991-0.938,1.931-0.4,2.471,1.126c1.25,3.866-0.204,7.188-1.185,9.79
		C88.582,122.542,87.908,121.42,87.371,119.894z M106.733,110.605c-0.699-3.045,0.374-6.483,1.765-7.402
		c1.103-0.817,1.968-0.131,2.305,1.503c0.744,4.124-1.125,7.305-2.433,9.82C107.593,113.481,107.071,112.238,106.733,110.605z
		 M121.958,144.414c-1.073,3.739-4.383,10.379-6.884,7.536c-3.05-3.47,1.148-12.476,5.207-16.624
		c0.841-0.858,2.753-2.345,3.829-2.934C124.109,132.391,123.763,138.119,121.958,144.414z"/>
        <polygon fill="#00A0AF" points="168,170 169,170 169,176 171,176 171,170 172,170 172,168 168,168 	"/>
        <path fill="#00A0AF" d="M177.972,168l-1.337,4.051c-0.334,0.947-0.601,1.949-0.791,2.949h-0.034c-0.19-1-0.445-2.024-0.757-2.949
		L173.772,168h-1.236l-0.524,8h0.925l0.2-2.95c0.066-1.126,0.122-2.05,0.144-3.05h0.023c0.211,1,0.513,1.613,0.869,2.672
		l1.215,3.328h0.735l1.326-3.396c0.378-1.036,0.69-1.604,0.946-2.604h0.034c-0.011,1,0.056,1.925,0.112,2.972l0.19,3.028h0.947
		l-0.468-8H177.972z"/>
    </g>
</svg>
